# xmcd CD database file generated by Grip 2.96
# 
# Track frame offsets:
#       150
#       24452
#       36835
#       53190
#       73207
#       93735
#       106622
#       118135
#       132540
#       147942
#       167200
# 
# Disc length: 2421 seconds
# 
# Revision: 0
# Processed by: cddbd v1.4PL0 Copyright (c) Steve Scherf et al.
# Submitted via: Grip 2.96
# 
DISCID=a209730b
DTITLE=Country Melvins - Country Melvins
DYEAR=1900
DGENRE=
TTITLE0=Messy Town
TTITLE1=In The Pines
TTITLE2=Streets Of The City
TTITLE3=Cold
TTITLE4=Johnny Mountain
TTITLE5=Dead Man
TTITLE6=Hard
TTITLE7=Whiskey River
TTITLE8=Noah's Lament
TTITLE9=Audrey
TTITLE10=Downside
EXTD=
EXTT0=
EXTT1=
EXTT2=
EXTT3=
EXTT4=
EXTT5=
EXTT6=
EXTT7=
EXTT8=
EXTT9=
EXTT10=
PLAYORDER=
